<svg xmlns="http://www.w3.org/2000/svg" id="blink_xA0_Image" viewBox="0 0 512 512"><defs><style>.st0{fill:none}</style></defs><path d="m245.79 154.29 34.7.72c94.28 7.68 180.87 60.71 230.13 140.97l-.09 1.98c-26.17 39.98-60.01 74.41-101.24 98.84-136.7 81.03-315.02 41.12-402.53-91.07-1.31-1.98-5.81-8.25-5.4-9.75 51.79-84.49 144.94-138.49 244.42-141.69ZM463 283c-63.09-81.38-169.99-114.56-270.01-91.51C136.53 204.5 84.38 237.36 49 283zm-293 32H55l3.95 5.52c104.9 115.01 289.22 114.28 394.09 0l3.95-5.52h-115c-3.74 31.58-24.85 59.75-55.04 70.46-53.63 19.01-110.09-13.78-116.96-70.46Zm142 0H200c3.14 25.34 28.1 46.07 53.45 47.04 27.73 1.06 54.62-19.46 58.55-47.04M250.76 51.21c9.4-1.38 17.43 6.15 18.28 15.25.96 10.14 1.42 42.55-.27 51.81-2.95 16.22-29.76 16.13-31.79-.75-1.04-8.69-1.33-47.03.25-54.79 1.12-5.5 8.13-10.72 13.53-11.51ZM59.73 96.23c5.2-1.07 9.55-.33 13.77 2.77 6.39 4.69 31.74 30.11 36.48 36.52 10 13.54-2.94 28.48-17.31 22.32-3.84-1.65-34.96-32.56-38.63-37.37-1.2-1.57-3.4-4.38-3.81-6.18-1.61-7.1 1.76-16.46 9.51-18.06ZM441.73 96.23c13.93-2.89 23.6 10 16.11 22.1-2.4 3.88-33.86 35.4-37.9 38.1-13.92 9.29-29.58-5.53-20.76-19.76 3.06-4.94 31.41-33.03 36.81-37.19 1.64-1.26 3.72-2.82 5.75-3.24Z"/><path d="M463 283H49c35.38-45.65 87.53-78.5 143.99-91.51C293.01 168.44 399.92 201.62 463 283M170 315c6.87 56.68 63.32 89.47 116.96 70.46 30.2-10.7 51.3-38.87 55.04-70.46h115l-3.95 5.52c-104.88 114.28-289.19 115.01-394.09 0L55.01 315h115Z" class="st0"/><path d="M312 315c-3.93 27.58-30.83 48.1-58.55 47.04-25.35-.97-50.3-21.7-53.45-47.04z" class="st0"/></svg>