<svg xmlns="http://www.w3.org/2000/svg" viewBox="0 0 512 512"><path d="M512 185.08v18.98c-1.62 6.97-2.42 14.1-4.49 20.99-11.03 36.79-43.1 60.51-81 63.91H30.65C14.69 286.81 3.43 278.08.15 262c.32-3.5-.45-7.61 0-10.99 2.43-18.12 18.87-26.6 35.51-27.96l382.92.03c41.65-3.01 35.35-61.73-6.04-56.99-19.57 2.24-20.49 23.13-31.96 34-14.32 13.57-34.28 11.41-46.49-3.55-26.43-32.34 17.87-75.42 45.92-88.94 48.57-23.41 112.97 4.11 127.5 56.49l4.5 20.98H512ZM299.06 511.76c-3.54.33-9.45.32-13 0-33.9-3.11-67.59-26.66-79.74-58.68-7.74-20.4-2.78-43.91 20.7-49.78 40.29-10.07 33.44 41.04 65.52 42.57 36.1 1.72 43.39-54.7 1.06-58.03l-213.85-.09c-38.32-3.99-40.15-57.44-3.04-64.73 56.26-1.08 112.66 1.13 168.91-.04 19.27-.4 35.91-3.55 55.67-.77 119.07 16.73 115.23 178.72-2.23 189.54Z"/><path d="M197.09.26c61.96 3.48 101.13 54.58 89.51 115.92-8.74 46.13-45.57 71.44-90.97 73.93-38.8 2.13-87.21 1.23-126.02-1.03-15.96-.93-31.11-.47-40.3-16.67-15.58-27.46 6.68-46.74 33.27-48.32 34.29-2.03 69.74.77 103.96 1.09 14.06.13 39.6.25 50.08-10 14.81-14.49 6.15-44-14.48-47.55-36.97-6.36-30.39 29.61-52.99 40.06-14.42 6.66-33.53-1.5-41.45-14.62C84.92 55.35 148.06 3.96 182.09.26c4.13-.45 10.72-.24 15 0"/></svg>