<?xml version="1.0" encoding="UTF-8"?>
<svg id="Layer_1" xmlns="http://www.w3.org/2000/svg" version="1.1" viewBox="0 0 512 512">
  <!-- Generator: Adobe Illustrator 29.8.1, SVG Export Plug-In . SVG Version: 2.1.1 Build 2)  -->
  <defs>
    <style>
      .st0 {
        fill-rule: evenodd;
      }
    </style>
  </defs>
  <path class="st0" d="M510.5,256.07c0,140.42-113.94,254.26-254.5,254.26S1.5,396.49,1.5,256.07,115.44,1.81,256,1.81s254.5,113.84,254.5,254.26h0ZM375.26,256c0,65.56-53.2,118.72-118.82,118.72s-118.82-53.15-118.82-118.72,53.2-118.72,118.82-118.72,118.82,53.15,118.82,118.72ZM352.61,256.07c0-53.23-43.19-96.38-96.47-96.38s-96.47,43.15-96.47,96.38,43.19,96.38,96.47,96.38,96.47-43.15,96.47-96.38ZM292.21,255.93c0,20.01-16.23,36.22-36.26,36.22s-36.26-16.22-36.26-36.22,16.23-36.22,36.26-36.22,36.26,16.22,36.26,36.22h0ZM269.71,255.99c0-8-6.49-14.49-14.5-14.49s-14.5,6.49-14.5,14.49,6.49,14.49,14.5,14.49,14.5-6.49,14.5-14.49h0Z"/>
</svg>