<?xml version="1.0" encoding="UTF-8"?>
<svg id="Layer_2" xmlns="http://www.w3.org/2000/svg" version="1.1" viewBox="0 0 512 512">
  <!-- Generator: Adobe Illustrator 29.8.1, SVG Export Plug-In . SVG Version: 2.1.1 Build 2)  -->
  <defs>
    <style>
      .st0 {
        isolation: isolate;
      }
    </style>
  </defs>
  <path class="st0" d="M216.63,3.1C119.97,13.92,18.35,113.67,5.22,209.86c-40.48,296.5,342.62,413.11,475.5,167.81C560.27,230.83,468.84,23.93,298.03,3.11c-18.75-2.29-62.46-2.12-81.4,0h0ZM329.81,394.98c-4,6.2-114.56,6.22-131.1,4.2-19.69-2.4-19.96-11.56-21.2-29.33-3.76-54.14-11.64-134.71,64.71-126.87-2.62-9.27-17.06-8.79-23.17-17.13-3.91-5.32-13.09-29.34-13.1-35.79,0-13.2,30.77-63.99,40.92-69.35,17.31-9.14,39.8,27.07,47,40.79,9.07,17.28,12.5,33.56,4.8,52.7l-28.75,28.77c16.79-6.23,59.89,11.81,59.89,29.97v122.02h-.01ZM268.97,214.39c4.79-2.74,10.9-20.72,9.52-27.86-1.19-6.13-17.31-32.57-24.65-30.98-3.38.74-18.69,21.9-19.91,26.45-6.21,23.13,14.55,44.1,35.03,32.39h.01ZM205.36,371.95h94.48c.49,0,6.92-6.42,6.92-6.91v-78.28c0-1.7-10.42-16.12-11.52-16.12h-78.35c-.81,0-11.52,10.7-11.52,11.51v89.79h0Z"/>
</svg>