<svg xmlns="http://www.w3.org/2000/svg" viewBox="0 0 512 512"><path d="M243 0c-11.78 7.69 3.55 18.02 5.55 28.95 4.05 22.19-8.46 28.4-19.36 43.73-18.76 26.37-23.35 56.14-12.21 86.84 1.59 4.39 12.4 27.48 16.52 27.48H248c-9.84-20.46-14.62-44.54.98-63.52 3.6-4.38 17.01-15.97 22.51-15.53 6.21.5-.71 9.14-1.26 11.78-2.07 10.01 5.97 14.63 10.29 22.26 8.49 15.03 7.12 31.46-3.52 45.02h21.5c3.63 0 9.86-17.18 11.25-20.75 21.89-56.27 17.64-114.28-34.44-151.07C266.66 9.08 257.45 4.69 248 0M357 512l-.46-280.04c-1.04-1.57-31.92-8.76-36.33-9.67-22.24-4.56-71.98-13.33-91.16-.75-4.37 2.86-7.86 8.66-13.34 11.66-6.75 3.7-14.34 5.18-21.68 2.27L178 226v92.5c0 2.11-15.51 31.89-17.75 38.25-4.85 13.77-11.85 36.03 11.74 21.25-2.33 7.84-8.27 25.48 6 21v113"/><path d="M357 512H178V399c-14.28 4.48-8.34-13.17-6.01-21-23.59 14.78-16.58-7.48-11.74-21.25 2.24-6.36 17.75-36.14 17.75-38.25V226l16.03 9.47c7.34 2.92 14.92 1.43 21.68-2.27 5.48-3 8.97-8.8 13.34-11.66 19.19-12.58 68.92-3.81 91.16.75 4.41.9 35.3 8.1 36.33 9.67zM248 0c9.46 4.68 18.66 9.07 27.31 15.19 52.08 36.79 56.33 94.79 34.44 151.07-1.39 3.57-7.62 20.75-11.25 20.75H277c10.64-13.56 12.01-29.99 3.52-45.02-4.31-7.63-12.36-12.25-10.29-22.26.55-2.64 7.47-11.27 1.26-11.78-5.5-.44-18.91 11.15-22.51 15.53-15.59 18.99-10.82 43.06-.98 63.52h-14.5c-4.12 0-14.93-23.09-16.52-27.48-11.15-30.7-6.55-60.47 12.21-86.84 10.91-15.33 23.41-21.54 19.36-43.73-2-10.93-17.33-21.26-5.55-28.95z"/></svg>