<svg xmlns="http://www.w3.org/2000/svg" viewBox="0 0 512 512"><path d="M241.79 1.29c22.09-1.27 64.11 1.18 84.24 10.17 20.4 9.12 22.89 36.73 4.3 49.37-14.19 9.65-27.16 1.91-42.13-.54-23.4-3.84-47.11-2.93-70.41 1.01-11.96 2.02-19.89 7.42-32.47 1.88-19.35-8.51-22.28-37-4.66-49.01 11.58-7.9 46.56-12.04 61.13-12.87ZM195.83 446.24c8.18-.42 19.44 4.05 27.96 5.46 23.33 3.87 47.17 2.92 70.41-1 10.29-1.74 17.9-6.37 28.84-3.25 22.43 6.41 27.35 37.96 7.65 50.74-16.29 10.57-67.41 13.82-87.19 12.79-15.29-.8-56.15-5.74-66.55-16.45-16.88-17.37-4.79-47.1 18.87-48.3h.01ZM414.81 67.23c15.45-1.09 27.71 14.05 36.7 24.76 18.67 22.25 48.76 72.82 51.47 101.52 3.28 34.75-42.33 44.51-54.76 13.77-7.12-17.61-10.11-32.37-20.05-49.95-10.13-17.91-21.26-27.65-33.15-42.85-14.83-18.97-3.91-45.57 19.79-47.25M34.79 286.27c12.75-1.18 24.27 6.8 28.99 18.46 7.14 17.65 10.03 32.31 20.05 49.95s21.32 27.72 33.15 42.85c22.08 28.25-12.69 62.23-40.5 39.5-26.57-21.72-59-79.41-66.19-112.81-4.06-18.86 3.79-36.03 24.5-37.94ZM468.76 287.26c21.42-3.11 37.05 11.53 34.15 33.15-4.18 31.22-43.44 98.04-68.44 117.56-23.09 18.04-54.32-4.41-44.66-31.66 3.07-8.66 13.13-16.46 19.16-23.84 14.56-17.83 25.88-38.45 34.05-59.95 5.4-14.21 6.32-32.44 25.74-35.26M93.81 67.23c10.98-.78 23.17 6.9 27.68 16.77 10.27 22.45-11.04 35.51-22.91 51.08-18.51 24.29-23.66 42.41-34.11 69.89-11.67 30.7-52.92 24.61-55.52-4.44-1.8-20.19 21.83-66.22 33.23-83.85 9.58-14.82 33.34-48.16 51.62-49.46Z"/></svg>