<?xml version="1.0" encoding="UTF-8"?>
<svg id="Layer_1" xmlns="http://www.w3.org/2000/svg" version="1.1" viewBox="0 0 512 512">
  <!-- Generator: Adobe Illustrator 29.8.1, SVG Export Plug-In . SVG Version: 2.1.1 Build 2)  -->
  <defs>
    <style>
      .st0 {
        fill-rule: evenodd;
      }
    </style>
  </defs>
  <path class="st0" d="M510.48,256c0,140.42-113.96,254.25-254.48,254.25S1.52,396.42,1.52,256,115.49,1.75,256,1.75s254.48,113.83,254.48,254.25ZM144.4,251.48h158.3c9.59,7.01,9.59,15.61,0,22.58h-158.3c-9.59-7.01-9.59-15.61,0-22.58h0ZM185.06,188.23h158.3c9.59,7.01,9.59,15.61,0,22.58h-158.3c-9.59-7.01-9.59-15.61,0-22.58ZM194.16,314.77h158.3c9.59,7.01,9.59,15.61,0,22.58h-158.3c-9.59-7.01-9.59-15.61,0-22.58Z"/>
</svg>