<?xml version="1.0" encoding="UTF-8"?>
<svg id="Layer_1" xmlns="http://www.w3.org/2000/svg" version="1.1" viewBox="0 0 512 512">
  <!-- Generator: Adobe Illustrator 29.8.1, SVG Export Plug-In . SVG Version: 2.1.1 Build 2)  -->
  <defs>
    <style>
      .st0 {
        fill-rule: evenodd;
      }
    </style>
  </defs>
  <path class="st0" d="M510.48,256c0,140.42-113.96,254.25-254.48,254.25S1.52,396.42,1.52,256,115.49,1.75,256,1.75s254.48,113.83,254.48,254.25ZM293.87,320.33c-1,.73-.5,7.51-3.71,8.18-19.23,3.98-49.04-22.44-69.26-25.33-4.21-2.89-10.36-7.2-9.14-12.84.73-3.44,44.47-39.5,51.17-38.18,12.63,15.52,104.92,96.68,106.9,105.59.9,4.02-3.89,10.45-6.83,11.22-16.24,4.43-43.89-44.56-63.79-49.36-2.54-1.9-3.39-.68-5.34.77v-.04h.01ZM283.87,305.67c4.66-4.12-23.97-39.85-31.57-20.27-7.42,13.71,28.95,22.58,31.57,20.27ZM130.33,242.25c-.95-33.79,26.55-8.37,43.84-5.39,27.19,4.7,40.45-4.3,63.38-15.75,5.2-2.58,5.43-8.24,9.14-10.05,13.34-6.43,31.36-6.47,45.06-1.27,8.91,3.39,48.27,35.29,46.46,43.84-4.79,22.71-43.16-18-50.9-21.35-27.41-11.94-43.34,12.49-66.78,21.35-36.73,13.94-57.14,4.48-90.21-11.45v.06ZM233.29,209.72c-1.4,1.18-32.44,1.5-36.69.23-3.93-1.13-21.76-18.19-23.43-21.81-18.77-40.89,38.77-80.12,67.68-40.54,11.99,16.42,7.28,49.76-7.55,62.07v.04h-.01ZM227.09,171.26c0-9.82-7.97-17.78-17.83-17.78s-17.83,7.97-17.83,17.78,7.97,17.78,17.83,17.78,17.83-7.97,17.83-17.78Z"/>
</svg>