<svg xmlns="http://www.w3.org/2000/svg" viewBox="0 0 512 512"><path d="M0 330c2.92 5.22 6.03 9.92 12.56 10.94 10.8 1.69 52.69 1.46 63.96.09 17.8-2.18 17.8-27.87 0-30.05-11.27-1.38-53.17-1.6-63.96.09-6.53 1.02-9.64 5.72-12.56 10.94v-52c3.17 5.95 6.3 9.89 13.48 11.02 39.08-2.92 83.65 3.8 122.07.03 18.77-1.84 19.39-26.94.97-30.07H13.48C6.3 252.12 3.18 256.07 0 262.01M512 117c-5.22-18.79-22.45-30.78-41.97-24.47-22.2 7.17-25.4 38.31-37.51 55.37l-41.17-19.64c-36.49 16.5-82.26 5.26-103.48-29.18-18.11 5.27-27.66 18.61-35.73 34.56-11.4 22.52-35.95 70.56-38.01 93.99-2.95 33.57 8.43 53.65 27.9 78.85 23.89 30.92 50.2 60.07 73.82 91.23.43 1.8-1.02 4.24-1.67 5.97-6.89 18.34-33.46 61.12-32.16 77.81 2.38 30.49 42.7 40.5 59.18 14.2 12.14-28.95 29.59-58.01 40.99-87.01 5.5-13.98 4.93-23.19-3.76-35.6l-76.28-93.79L348.03 179l88.71 40.78c15.86 6.17 31.57-.25 40.07-14.48 10.22-17.1 22.17-45.71 30.37-64.63 1.8-4.16 3-8.55 4.83-12.67M350.79 1.29c-72.7 6.88-55.75 119.81 17.24 103.24C429.74 90.52 415.55-4.84 350.79 1.29M253 83.01c-17.93-1.1-44.34-14.76-61.4-12.89-9.73 1.07-16.22 6.66-22.58 13.41-21.36 22.72-40.41 50.3-61.22 73.78-17.84 38.76 24.3 66.88 54.71 33.71 15.14-16.52 28.94-35.83 43.67-52.84l10.3.86c9.52-21.89 17.17-37.72 35.24-53.75.67-.59 1.91.06 1.28-2.28M207.01 311l-2.03 31.48-1.42 2.58L132 371.5c-33.11 17.57-18.32 66.3 20.26 60.26 29.54-12.99 66.95-20.49 95.43-34.57 4.93-2.44 17.44-12.3 14.81-18.14l-55.48-68.04h-.01Z"/><path d="M512 117v11c-1.83 4.13-3.02 8.52-4.83 12.67-8.2 18.91-20.15 47.53-30.37 64.63-8.5 14.22-24.22 20.65-40.07 14.48L348.02 179l-45.88 100.29 76.28 93.79c8.7 12.41 9.26 21.61 3.76 35.6-11.4 29-28.84 58.06-40.99 87.01-16.48 26.29-56.81 16.29-59.18-14.2-1.3-16.7 25.27-59.47 32.16-77.81.65-1.73 2.1-4.17 1.67-5.97-23.61-31.17-49.93-60.31-73.82-91.23-19.46-25.2-30.85-45.28-27.9-78.85 2.06-23.42 26.62-71.47 38.01-93.99 8.07-15.95 17.62-29.3 35.73-34.56 21.22 34.45 66.99 45.68 103.48 29.18l41.17 19.64c12.11-17.06 15.31-48.2 37.51-55.37 19.52-6.31 36.75 5.69 41.97 24.47ZM0 270v-8c3.17-5.95 6.3-9.89 13.48-11.02h123.05c18.42 3.13 17.8 28.23-.97 30.07-38.43 3.78-83-2.95-122.07-.03C6.31 279.89 3.19 275.94.01 270ZM0 330v-8c2.92-5.22 6.03-9.92 12.56-10.94 10.8-1.69 52.69-1.46 63.96-.09 17.8 2.18 17.8 27.87 0 30.05-11.27 1.38-53.17 1.6-63.96-.09-6.53-1.02-9.64-5.72-12.56-10.94ZM253 83.01c.63 2.34-.61 1.69-1.28 2.28-18.06 16.03-25.72 31.86-35.24 53.75l-10.3-.86c-14.73 17.01-28.52 36.32-43.67 52.84-30.41 33.17-72.55 5.05-54.71-33.71 20.81-23.48 39.86-51.06 61.22-73.78 6.35-6.76 12.85-12.35 22.58-13.41 17.06-1.87 43.47 11.79 61.4 12.89"/><path d="m207.01 311 55.48 68.04c2.64 5.84-9.88 15.7-14.81 18.14-28.47 14.08-65.88 21.58-95.43 34.57-38.58 6.05-53.37-42.69-20.26-60.26l71.56-26.44 1.42-2.58 2.03-31.48ZM350.79 1.29c64.76-6.13 78.95 89.23 17.24 103.24-72.99 16.57-89.94-96.36-17.24-103.24"/></svg>