<?xml version="1.0" encoding="UTF-8"?>
<svg id="Layer_1" xmlns="http://www.w3.org/2000/svg" version="1.1" viewBox="0 0 512 512">
  <!-- Generator: Adobe Illustrator 29.8.1, SVG Export Plug-In . SVG Version: 2.1.1 Build 2)  -->
  <defs>
    <style>
      .st0 {
        fill: #0d0e0e;
      }
    </style>
  </defs>
  <path class="st0" d="M315.56,169.88c43.2,14.84,63.24,66.73,62.16,109.79-.23,8.14-5.39,16.24-4.3,24.66,2.04,15.69,35.02,29.63,6.56,60.44-29.59,32.03-81.47-7.06-56.19-43.74,6.7-9.72,23.39-15.97,26.92-22.8,14.34-27.41-2.12-72.48-21.04-94.91-10.13-12.03-25.43-8.68-14.11-33.48v.04h0ZM368.27,340.93c0-7.87-6.38-14.3-14.3-14.3s-14.3,6.38-14.3,14.3,6.38,14.3,14.3,14.3,14.3-6.38,14.3-14.3ZM137.18,277.59c.81-32.17,15.52-73.02,39.41-95.32,11.09-10.36,30.63-15.11,39.27-22.93,10.55-9.51,7.42-30.53,28.95-37.37,53.34-17.01,71.98,67.9,14.11,71.57-17.64,1.13-25.7-21.44-52.75-6.56-10.32,5.7-31.76,31.21-36.6,42.16-10.45,23.84,1.81,55.15-32.34,48.45h-.05ZM273.09,155.98c0-7.97-6.47-14.44-14.44-14.44s-14.44,6.47-14.44,14.44,6.47,14.44,14.44,14.44,14.44-6.47,14.44-14.44ZM298.69,360.66l2.67,20.81c-19.36,7.91-40.89,9.78-61.48,6.97-15.34-2.08-36.87-14.84-46.87-15.42-14.57-.86-21.49,9.95-40.76-.63-68.13-37.41,50.71-121.74,53.11-20.18,29.45,19.41,60.76,16.6,93.33,8.41v.04h0ZM183.51,340.93c0-7.87-6.38-14.3-14.3-14.3s-14.3,6.38-14.3,14.3,6.38,14.3,14.3,14.3,14.3-6.38,14.3-14.3ZM216.63,3.12C119.95,13.93,18.34,113.69,5.21,209.87c-40.49,296.5,342.61,413.09,475.52,167.79C560.26,230.81,468.84,23.92,298.06,3.11c-18.77-2.31-62.47-2.12-81.39,0h-.04Z"/>
</svg>