<svg xmlns="http://www.w3.org/2000/svg" viewBox="0 0 512 512"><path d="M0 168h168.01V0M142 512V397H26v115M512 27H397v115h115M358 9H207v151h151zM160 207H8v151h152zm187 11H218v129h129zm63.5 19-1.5 1.5v88l1.5 1.5h88l1.5-1.5v-88l-1.5-1.5zm-172 172-1.5 1.5v88l1.5 1.5h88l1.5-1.5v-88l-1.5-1.5zm172 0-1.5 1.5v88l1.5 1.5h88l1.5-1.5v-88l-1.5-1.5z"/><path d="M0 0h168v168H0zM26 397h116v115H26zM397 27h115v115H397zM8 207h152v151H8zM207 9h151v151H207zM218 218h129v129H218zM410.5 237h88l1.5 1.5v88l-1.5 1.5h-88l-1.5-1.5v-88zM238.5 409h88l1.5 1.5v88l-1.5 1.5h-88l-1.5-1.5v-88zM410.5 409h88l1.5 1.5v88l-1.5 1.5h-88l-1.5-1.5v-88z"/></svg>