<?xml version="1.0" encoding="UTF-8"?>
<svg id="Layer_1" xmlns="http://www.w3.org/2000/svg" version="1.1" viewBox="0 0 512 512">
  <!-- Generator: Adobe Illustrator 29.8.1, SVG Export Plug-In . SVG Version: 2.1.1 Build 2)  -->
  <defs>
    <style>
      .st0 {
        fill-rule: evenodd;
      }
    </style>
  </defs>
  <path class="st0" d="M509.28,219.56c2.04,16.38,2.04,55.92,0,72.29-13.21,107.49-116.04,207.38-223.89,216.84C-9.53,534.62-107.62,142.16,148.94,24.49c150.51-69.04,339.84,28.59,360.34,195.07ZM346.1,251.55c7.1,32.21-46.05,30.86-60.62,49.4-15.29,19.41-13.07,87.72-47.59,73.79-4.66-15.97-20.13-69.8-29.55-78.12-12.9-11.45-64.38-19.23-60.39-38.1,2.54-12.07,52.94-22.39,61.66-31.08,9.91-9.91,19.04-56.64,28.09-73.56,8.37-15.61,14.98-16.92,23.12-.09,8.14,16.83,16.6,60.72,24.7,70.21,8.78,10.32,46.51,21.54,60.53,27.6l.04-.04h.01ZM255.94,196.94h-13.44c-5.02,31.57-15.38,54.15-49.72,58.95l-.14,13.3c33.71,1.04,46.46,28.78,49.76,58.81,15.75,1.18,14.03-18.14,19.23-28.18,12.3-23.66,23.89-23.08,44.02-37.37,1.63-9.78-1.94-5.2-6.29-7.1-31.8-13.84-38.5-21.44-43.52-58.35l.09-.04h0ZM342.98,150.71c6.43,6.38,20.9.86,17.06,14.57-20.18-2.44-18.05,16.38-29.41,27.1-10.13-12.36-8.37-28.91-29.41-27.1l3.12-8.91c18.91.09,16.38-16.42,26.28-27.1,8.01,4.21,7.97,17.06,12.36,21.44h.01Z"/>
</svg>