<svg xmlns="http://www.w3.org/2000/svg" viewBox="0 0 512 512"><path d="M245 0c-3.52 1.99-5.22 3.85-6.85 7.65L111.2 262.77c-1.4 3.56 2.81 10.23 6.3 10.23H207l-95.32 227.18c-2.29 5.52 1.3 8.81 5.32 11.82h5c5.07-4.07 9.29-9.1 13.52-13.98 88.51-102.29 172.79-208.36 261.46-310.54 5.5-3.34 4.85-16.48-1.48-16.48H292l98.54-156.95C394.17 8.5 392.16 3.5 387 0"/><path d="M387 0c5.16 3.49 7.17 8.5 3.54 14.05L292 171h103.5c6.33 0 6.98 13.14 1.48 16.48-88.67 102.18-172.95 208.25-261.46 310.54-4.23 4.89-8.45 9.91-13.52 13.98h-5c-4.02-3.01-7.61-6.3-5.32-11.82L207 273h-89.5c-3.49 0-7.7-6.67-6.3-10.23L238.15 7.65c1.64-3.8 3.34-5.66 6.85-7.65z"/></svg>