<svg xmlns="http://www.w3.org/2000/svg" viewBox="0 0 512 512"><path d="M129.99 512c13.52-4.48 22.98-7.63 20.74-24.24l-109-388.99C32.11 80.14 5.46 84.34 0 104M436.96 0c-18.78 24.63-45.98 41.99-76.17 49.33C262.25 73.26 138.59 5.01 57.9 89.49l72.59 257.49c19.17-19.31 42.97-32.44 69.68-38.3 92.93-20.39 206.95 37.8 287.8-28.17 8.19-6.68 22.42-19.85 23.98-30.51M0 113l108.26 386.23c2.64 7.11 5.16 9.23 11.73 12.77"/><path d="M129.99 512h-10c-6.56-3.54-9.09-5.67-11.73-12.77L0 113v-9c5.46-19.66 32.11-23.87 41.73-5.23l109 388.99c2.24 16.61-7.22 19.76-20.74 24.24"/></svg>