<?xml version="1.0" encoding="UTF-8"?>
<svg id="Layer_1" xmlns="http://www.w3.org/2000/svg" version="1.1" viewBox="0 0 512 512">
  <!-- Generator: Adobe Illustrator 29.8.1, SVG Export Plug-In . SVG Version: 2.1.1 Build 2)  -->
  <defs>
    <style>
      .st0 {
        fill-rule: evenodd;
      }
    </style>
  </defs>
  <path class="st0" d="M295.34,508.88c-18.96,2.12-62.66,2.31-81.39,0C43.13,488.07-48.29,281.15,31.28,134.34,164.15-110.95,547.24,5.63,506.8,302.13c-13.11,96.18-114.73,195.94-211.41,206.75h-.04ZM340.58,271.64c-.31,1.08-13.53,14.75-15.56,16.06-22.12,14.11-97.41-13.53-128.66,9.22-6.38,9.01,22.71,77.18-2.67,71.79-6.06-1.27-12.13-16.15-13.88-22.35-14.48-51.44-18.1-112.96-33.75-165.08,12.67-34.38,61.89-33.11,92.42-29.09,23.08,3.03,32.67,14.03,61.76,6.74,14.07-3.48,27.19-21.62,40.35-4.84-5.56,30.63,7.47,91.02,0,117.49v.04h-.01ZM322.49,179.04c-16.52-.77-30.63,5.43-47.55,4.79-18.91-.68-100.16-25.11-105.27,2.54-1.27,6.7,17.6,85.36,24.52,87.22,27.68-7.37,51.44-10.59,80.35-8.24,10.95.9,47.95,17.33,47.95-7.24v-79.08h-.01Z"/>
</svg>