<?xml version="1.0" encoding="UTF-8"?>
<svg id="Layer_1" xmlns="http://www.w3.org/2000/svg" version="1.1" viewBox="0 0 512 512">
  <!-- Generator: Adobe Illustrator 29.8.1, SVG Export Plug-In . SVG Version: 2.1.1 Build 2)  -->
  <defs>
    <style>
      .st0 {
        stroke: #000;
        stroke-miterlimit: 10;
        stroke-width: 18px;
      }
    </style>
  </defs>
  <path d="M0,188v8c3.25,8.46,10.42,16.03,20.23,15.74,11.17-.32,21.69-13.12,30.31-19.7,34.78-26.58,70.66-36.69,114.64-28.73,46.26,8.37,67.8,38.52,102.9,64.1,66.67,48.58,150.4,46.41,215.81-3.02,10.08-7.62,22.71-16.92,28.1-28.4v-8c-3.23-11.4-12.43-17.88-24.44-15.94-7.19,1.17-21.06,15.37-27.66,20.33-34.51,25.94-70.93,35.4-114.08,27.28-45.26-8.51-67.01-38.26-101.5-63.5-74.82-54.77-168.3-44.73-234.79,17.84-4.7,4.42-7.69,7.49-9.53,13.97v.03h0ZM0,406v8c3.23,11.4,12.43,17.88,24.44,15.94,7.19-1.17,21.06-15.37,27.66-20.33,34.51-25.94,70.93-35.4,114.08-27.28,45.28,8.52,67,38.25,101.49,63.51,70.15,51.4,156.11,46.18,222.81-7.86,8.18-6.63,18.44-13.59,21.53-23.97v-8c-4.42-11.02-12.96-17.87-25.21-14.7-8.49,2.2-18.02,13.07-25.34,18.65-23.87,18.24-47.32,29.27-77.97,31.03-94.53,5.43-114.39-69.91-191.49-93.49-63.6-19.44-124.91-3.73-174.47,38.52-6.77,5.78-14.26,11.41-17.53,19.97h0Z"/>
  <path d="M0,297v8c3.21,10.45,11.97,17.49,23.26,15.76,9.27-1.42,22.72-16.17,30.83-22.17,51.51-38.09,116.3-38.1,167.83,0,53.65,39.67,76.28,73.31,151.59,73.5,46.92.12,101.13-22.23,133.03-57.05,2.91-3.18,3.43-6.55,5.46-10.04v-8c-3.21-10.45-11.97-17.49-23.26-15.76-9.01,1.38-31.37,23.14-41.43,29.57-43.75,27.98-102.85,27.99-146.62,0-19.77-12.64-36-30.32-54.78-44.22-69.12-51.19-154.18-48-221.37,4.46-9.06,7.07-20.55,15.05-24.54,25.96h0Z"/>
  <path class="st0" d="M380,60h-233.14"/>
  <path d="M184.06,97l-37.02-37,37.02-37h-31.41l-37,37,37,37h31.41Z"/>
</svg>