<?xml version="1.0" encoding="UTF-8"?>
<svg id="Layer_1" xmlns="http://www.w3.org/2000/svg" version="1.1" viewBox="0 0 512 512">
  <!-- Generator: Adobe Illustrator 29.8.1, SVG Export Plug-In . SVG Version: 2.1.1 Build 2)  -->
  <defs>
    <style>
      .st0 {
        fill-rule: evenodd;
      }
    </style>
  </defs>
  <path class="st0" d="M11.31,256c0,135.02,109.58,244.47,244.69,244.47s244.69-109.45,244.69-244.47S391.11,11.53,256,11.53,11.31,120.98,11.31,256h0ZM202.45,173.44l-4.39-4.26c.7-18.75-.13-30.19-19.71-15.44-40.15,30.23-25.4,39.19,7.35,66.69l14.57-3.57-4.35-21.66h154.38c12.35-1,11.53-11.31,10.88-21.75h-158.73ZM311.16,308.11h-147.86c-11.83,0-11.83,26.06,0,26.06h147.86c9.18,0,14.83-20.97,0-26.06ZM360.66,247.3h-147.86c-11.83,0-11.83,26.06,0,26.06h147.86c9.18,0,14.83-20.97,0-26.06h0Z"/>
</svg>