<?xml version="1.0" encoding="UTF-8"?>
<svg id="Layer_1" xmlns="http://www.w3.org/2000/svg" version="1.1" viewBox="0 0 512 512">
  <!-- Generator: Adobe Illustrator 29.8.1, SVG Export Plug-In . SVG Version: 2.1.1 Build 2)  -->
  <defs>
    <style>
      .st0 {
        fill-rule: evenodd;
      }
    </style>
  </defs>
  <path class="st0" d="M510.5,256c0,140.42-113.96,254.25-254.48,254.25S1.5,396.42,1.5,256,115.46,1.75,255.98,1.75s254.48,113.83,254.48,254.25h.04ZM311.75,170.18l4.57-4.43c-.73-19.5.14-31.4,20.5-16.06,41.76,31.44,26.42,40.76-7.64,69.36l-15.15-3.71,4.52-22.53h-160.56c-12.84-1.04-11.99-11.76-11.32-22.62h165.08ZM198.65,310.25h153.77c12.3,0,12.3,27.1,0,27.1h-153.77c-9.55,0-15.42-21.81,0-27.1ZM147.17,246.99h153.77c12.3,0,12.3,27.1,0,27.1h-153.77c-9.55,0-15.42-21.81,0-27.1Z"/>
</svg>