<?xml version="1.0" encoding="UTF-8"?>
<svg id="Layer_1" xmlns="http://www.w3.org/2000/svg" version="1.1" viewBox="0 0 512 512">
  <!-- Generator: Adobe Illustrator 29.8.1, SVG Export Plug-In . SVG Version: 2.1.1 Build 2)  -->
  <defs>
    <style>
      .st0 {
        fill-rule: evenodd;
      }
    </style>
  </defs>
  <path class="st0" d="M510.48,256c0,140.42-113.96,254.25-254.48,254.25S1.52,396.42,1.52,256,115.49,1.75,256,1.75s254.48,113.83,254.48,254.25ZM269.8,197.86c-2.76-2.49-64.24-1.5-74.24-.81-43.52,3.03-38.23,45.55.09,49.99,44.83,5.25,98.12-4.89,143.96.77,26.64,18.23,42.21,42.35,18.82,71.21-27.14,33.52-79.03,10.22-112.02,18.14-5.12,1.22-7.47,19.81-23.57,22.62-11.67,1.99-65.24,1.85-72.7-4.02-12.26-9.72-11.26-60.99,10.36-67.27,8.51-2.49,53.02-2.49,61.48,0,12.13,3.58,20.5,25.43,24.39,26.33,8.59,2.04,70.35,1.58,80.49-.18,27.19-4.7,26.64-41.89-1-48.45-38-9.05-133.73,9.55-161.23-6.2-38.14-21.85-20.9-80.93,21.99-85.46,25.43-2.67,55.1,1.99,81.03.41,4.89-.95,1.5-17.92,14.88-22.03,8.24-2.54,57.1-2.44,66.91-.77,29.27,5.06,27.6,58.5,2.26,69.9-9.59,4.3-48.9,3.8-60.03,1.35-22.35-4.89-18.41-22.39-21.85-25.56v.04h-.03ZM292.92,201.81c17.92,2.22,73.96,4.3,52.34-27.46-5.16-7.51-38.14-4.79-48.09-2.22l-4.25,29.68h0ZM166.29,310.19l4.25,29.68c9.95,2.58,42.93,5.29,48.09-2.22,21.67-31.76-34.42-29.68-52.34-27.46h0Z"/>
</svg>