<svg xmlns="http://www.w3.org/2000/svg" viewBox="0 0 512 512"><path d="M451.44 238c10.42-1.48 20.11-11.31 22.79-21.2 4.01-14.76 3.02-71.88 1.74-89.31s-10.04-29.9-28.49-31.5L155 96.03c2.21 24.38-12.38 47.86-35.47 56.01-13.29 4.69-54.74 4.23-70.04 3.02C25.3 153.15 3.07 131.89 1 107.57c-1.29-15.11-1.41-45.03.04-60.01C3.3 24.38 24.31 3.33 47.54 1.08c14.81-1.44 46.15-1.43 60.97 0 27.82 2.69 49.77 31.46 46.49 58.98l294.48-.05c82.86 9.73 57.73 97.01 61.43 155.48-.98 26.86-31.59 58.5-58.47 58.5h-34.49c8.08 11.55 28.24 19.96 20.39 36.88-5.43 11.7-18.68 13.14-28.41 5.63-11.36-8.77-38.49-36.57-47.99-47.99-6.95-8.35-7.29-15.91-.49-24.53 8.26-10.47 38.05-40.45 48.48-48.5 9.64-7.45 22.12-6.21 28.05 5 8.95 16.94-11.88 25.96-20.02 37.52 10.39-1.05 23.45 1.42 33.49 0z"/><path d="M59.53 451.94c-28.96-2.67-55.71-28.53-58.36-57.61-3.04-33.37.84-72.78 1.33-106.38 7.22-27.65 30.63-47.17 59.04-49.93H179c-3.24-28.41 18.95-56.36 47.5-58.98 13.93-1.28 58.55-1.58 70.44 2.51 19.12 6.58 34.44 25.56 36.05 45.93 1.26 15.89 1.74 57.75-3.55 71.5-6.99 18.17-25.29 32.49-44.94 34.04-15.3 1.21-56.75 1.67-70.04-3.02-23.1-8.15-37.78-31.57-35.47-56.01l-115.52-.03c-17.85 2.29-26.21 14.27-27.5 31.49-1.62 21.63-1.59 57.41 0 79.05.75 10.17 3.9 20.32 12.7 26.29 1.72 1.17 10.26 5.16 11.83 5.16h199.46c-8.51-11.69-28.87-20.79-19.55-38.04 5.69-10.53 18.47-11.49 27.57-4.47 10.43 8.05 40.22 38.03 48.47 48.5 5.63 7.13 6.62 15.46 1.02 23.03-17.27 14.15-33.26 37.21-50.49 50.48-8.47 6.52-20.73 4.56-26.23-4.81-10.22-17.44 10.53-26.9 19.2-38.7zM402.73 357.25c13.43-1.61 56.84-1.81 68.99 1.44 19.42 5.19 37.23 24.44 39.2 44.78 1.4 14.46 1.56 48.54-.25 62.72-2.83 22.26-23.94 42.57-46.24 44.73-14.62 1.42-47.39 1.51-61.87-.1-18.56-2.06-36.51-18.07-42.61-35.37-4.69-13.29-4.23-54.72-3.02-70.03 1.86-23.45 22.39-45.37 45.81-48.17z"/></svg>