<?xml version="1.0" encoding="UTF-8"?>
<svg id="Layer_1" xmlns="http://www.w3.org/2000/svg" version="1.1" viewBox="0 0 512 512">
  <!-- Generator: Adobe Illustrator 29.8.1, SVG Export Plug-In . SVG Version: 2.1.1 Build 2)  -->
  <defs>
    <style>
      .st0 {
        fill-rule: evenodd;
      }
    </style>
  </defs>
  <path class="st0" d="M216.63,3.12C119.95,13.93,18.34,113.69,5.21,209.87c-40.49,296.5,342.61,413.09,475.52,167.79C560.26,230.81,468.84,23.92,298.06,3.11c-18.77-2.31-62.47-2.12-81.39,0h-.04ZM279.83,239.63c-54.46-8.82-119.26,31.71-127.62,87.31-2.89,19.23,9.72,43.2,20.27,24.7,4.21-7.37.86-19.14,3.26-28.36,19.81-75.37,137.26-84.1,167.08-11.09,5.2,12.76,5.34,49.09,23.93,43.79,11.72-3.35,3.62-33.38,1.04-41.62-11.8-37.46-49.54-68.49-87.99-74.73h.04,0ZM197.22,175.31c5.66-48.9-47.23-2.27-45.47,15.61,1.13,11.36,36.92,43.52,45.47,34.11v-27.14h160.56c9.59-7.01,9.59-15.61,0-22.58h-160.56,0ZM275.21,289.45c-33.61-8.46-89.94,31.8-71.34,62.25,14.52,23.7,23.08-22.03,27.37-27.14,18.37-21.76,50.63-15.84,64.83,7.28,5.39,8.74,4.79,28.78,20.95,24.2,13.26-3.75,1.58-30.22-2.89-37.69-6.7-11.22-26.55-25.74-38.95-28.86l.04-.04h-.01Z"/>
</svg>