<?xml version="1.0" encoding="UTF-8"?>
<svg id="Layer_1" xmlns="http://www.w3.org/2000/svg" version="1.1" viewBox="0 0 512 512">
  <!-- Generator: Adobe Illustrator 29.8.1, SVG Export Plug-In . SVG Version: 2.1.1 Build 2)  -->
  <defs>
    <style>
      .st0 {
        stroke: #000;
        stroke-miterlimit: 10;
        stroke-width: 20px;
      }
    </style>
  </defs>
  <path d="M511.19,393v21c-5.88,13.2-16.75,21.61-31.71,16.21-18.44-6.67-13.73-27.2-15.3-42.7-9.11-90.02-78.01-166.8-166.8-184.2-126.99-24.88-239.66,64.06-251.23,191.15-1,11.02,2.39,20.46-6.13,29.87-9.77,10.8-28.16,9.66-36.03-2.64-7.33-11.47-2.73-41.1-.5-54.88,17.9-110.62,108.33-197.36,219.33-211.67,145.88-18.8,277.79,90.27,287.45,236.27l.92,1.59Z"/>
  <path d="M239.99,229.3c64.88-4.72,125.85,23.27,163.02,76.39,19.35,27.65,35.25,71.8,32.23,105.86-2.34,26.36-42.52,27.41-45.93-1.15-2.95-24.73-2.23-38.52-13.93-62.07-54.82-110.34-221.81-91.71-250.11,28.25-3.12,13.23-2.23,25.31-4.31,37.69-4.06,24.12-46.68,25.41-45.8-10.8,2.19-89.55,75.31-167.64,164.83-174.16h0Z"/>
  <path d="M249.99,304.3c57.32-3.34,110.98,44.84,110.29,103.19-.35,29.66-40.83,31.98-45.63,6.55-2.8-14.83-.92-22.21-9.65-36.35-25.75-41.71-89.04-34.18-104.84,11.77-5.38,15.66.63,38.96-22.92,42.1-20,2.67-27.06-13.99-26.08-31.1,2.94-51.72,47.97-93.2,98.84-96.16h-.01Z"/>
  <path class="st0" d="M379.19,99h-233.14"/>
  <path d="M185.77,136l-37.02-37,37.02-37h-31.41l-37,37,37,37h31.41Z"/>
</svg>