<svg xmlns="http://www.w3.org/2000/svg" viewBox="0 0 512 512"><path d="m512 348-.92-1.59c-9.66-146-141.56-255.07-287.44-236.27-111 14.31-201.43 101.04-219.33 211.67-2.23 13.78-6.83 43.41.5 54.88 7.86 12.3 26.26 13.44 36.03 2.64 8.52-9.42 5.12-18.85 6.13-29.87C58.54 222.38 171.21 133.44 298.2 158.31 387 175.7 455.89 252.48 465 342.51c1.57 15.5-3.14 36.03 15.3 42.7 14.96 5.41 25.83-3.01 31.71-16.21M240.8 184.3c-89.52 6.51-162.64 84.61-164.83 174.16-.89 36.21 41.73 34.93 45.8 10.8 2.08-12.38 1.19-24.46 4.31-37.69 28.29-119.96 195.29-138.59 250.11-28.25 11.7 23.55 10.98 37.34 13.93 62.07 3.41 28.56 43.59 27.51 45.93 1.15 3.03-34.05-12.88-78.2-32.23-105.86-37.16-53.12-98.14-81.11-163.02-76.39Zm10 75c-50.87 2.96-95.9 44.44-98.84 96.16-.97 17.11 6.09 33.77 26.08 31.1 23.54-3.14 17.53-26.44 22.92-42.1 15.8-45.95 79.1-53.48 104.84-11.77 8.73 14.14 6.86 21.52 9.65 36.35 4.79 25.43 45.27 23.1 45.63-6.55.7-58.36-52.96-106.53-110.29-103.19Z"/><path d="M512 348v21c-5.88 13.2-16.75 21.61-31.71 16.21-18.44-6.67-13.73-27.2-15.3-42.7-9.11-90.02-78.01-166.8-166.8-184.2C171.2 133.43 58.53 222.37 46.96 349.46c-1 11.02 2.39 20.46-6.13 29.87-9.77 10.8-28.16 9.66-36.03-2.64-7.33-11.47-2.73-41.1-.5-54.88 17.91-110.63 108.34-197.36 219.34-211.67 145.87-18.8 277.78 90.27 287.44 236.27z"/><path d="M240.8 184.3c64.88-4.72 125.85 23.27 163.02 76.39 19.35 27.65 35.25 71.8 32.23 105.86-2.34 26.36-42.52 27.41-45.93-1.15-2.95-24.73-2.23-38.52-13.93-62.07-54.82-110.34-221.81-91.71-250.11 28.25-3.12 13.23-2.23 25.31-4.31 37.69-4.06 24.12-46.68 25.41-45.8-10.8 2.19-89.55 75.31-167.64 164.83-174.16Z"/><path d="M250.8 259.3c57.32-3.34 110.98 44.84 110.29 103.19-.35 29.66-40.83 31.98-45.63 6.55-2.8-14.83-.92-22.21-9.65-36.35-25.75-41.71-89.04-34.18-104.84 11.77-5.38 15.66.63 38.96-22.92 42.1-20 2.67-27.06-13.99-26.08-31.1 2.94-51.72 47.97-93.2 98.84-96.16Z"/></svg>