<svg xmlns="http://www.w3.org/2000/svg" viewBox="0 0 512 512"><path d="M0 96c32.04 1.43 65.69-1.89 97.54-.04 40.18 2.34 75.61 22.85 98.68 55.32 41.38 58.24 73.48 126.05 116.75 183.25 7.74 7.46 26.84 17.48 37.52 17.48h33.5v-51.5c0-8.36 16.31-16.49 23.55-10.55L505 370.5l6.99 9.51v8l-5.98 8.52-96.68 80.32c-6.76 4.38-15.24 4.43-20.89-1.8-.77-.85-4.45-7.11-4.45-7.55V416c-17.2-.1-34.22.88-51.21-2.29-30.95-5.78-58.56-23.64-77.63-48.37-37.74-55.54-69.67-115.2-107.15-170.85-13.22-19.63-26.92-31.44-51.54-34.46l-96.48-.02v-64Z"/><path d="M512 124v8l-6.99 9.51-95.69 79.31c-7.29 4.84-16.18 4.13-21.86-2.79-.93-1.13-3.46-5.52-3.46-6.54v-51.5h-34.5c-3.07 0-16.44 4.58-19.86 6.14-24.95 11.41-33.42 38.44-49.14 58.84l-37.02-58.04c-.75-1.07-.42-1.8 0-2.88 1.76-4.51 12.9-19.27 16.55-23.53 19.84-23.14 49.23-39.35 79.6-43.4 14.68-1.96 29.59-.84 44.37-1.13v-51.5c0-.47 3.14-6.14 3.94-7.06 5.54-6.29 14.61-6.95 21.4-2.28l96.68 80.32 5.98 8.52ZM0 416v-64l94.54.04c12.44-1.38 23.59-4.9 33.79-12.21 18.2-13.03 25.64-35.67 39.17-52.81l37.49 59.48c-21.08 39.68-61.28 66.63-106.5 69.49-32.09 2.03-66.19-1.49-98.49 0Z"/></svg>