<svg xmlns="http://www.w3.org/2000/svg" id="rolling_xA0_Image" viewBox="0 0 512 512"><defs><style>.st0{fill:none}</style></defs><path d="M512 447c-2-3.92-7.7-11-12.5-11H319.07l22.45-16.04C455.67 328.28 443.4 150.4 317.38 75.19 183.29-4.82 10.07 87.47.19 242" class="st0"/><path d="M.19 242C10.07 87.47 183.29-4.82 317.38 75.19c126.03 75.2 138.29 253.08 24.14 344.77L319.07 436H499.5c4.79 0 10.49 7.08 12.5 11v8c-2.47 4.68-4.81 8.58-10.17 10.33l-302.26.72c-92.42-4.63-173.14-71.94-193.89-162.04L.19 270c.43-9.21-.59-18.85 0-28M198.91 92.3C71.82 101.61 2.75 248.53 78.34 352.31c69.81 95.84 216.11 88.44 274.89-14.64 65.06-114.12-23.8-254.94-154.32-245.37"/><path d="M.19 512V270l5.49 34.01c20.75 90.09 101.48 157.4 193.89 162.04l302.26-.72c5.36-1.75 7.7-5.65 10.17-10.33v57" class="st0"/><path d="M198.91 92.3c130.52-9.56 219.38 131.25 154.32 245.37-58.77 103.09-205.08 110.49-274.89 14.64C2.75 248.53 71.82 101.61 198.91 92.3m1 30c-103.59 8.21-158.48 128.11-97.15 212.59 60.81 83.76 190.08 69.16 231.16-25.53 40.36-93.04-33.46-195.03-134.01-187.06" class="st0"/><path d="M199.91 122.3c100.55-7.97 174.37 94.02 134.01 187.06-41.08 94.7-170.36 109.3-231.16 25.53-61.32-84.48-6.44-204.38 97.15-212.59m4 36c-74.94 5.78-116.26 90.52-73.59 153.02 44 64.43 142.8 53.33 171.51-19.05 26.49-66.76-26.21-139.49-97.93-133.96Z"/><path d="M203.91 158.3c71.72-5.53 124.41 67.2 97.93 133.96-28.72 72.38-127.52 83.48-171.51 19.05-42.68-62.5-1.35-147.24 73.59-153.02Zm1 30c-88.07 7.63-77.16 141.85 10.68 135.68 89.52-6.28 79.6-143.51-10.68-135.68" class="st0"/><path d="M204.91 188.3c90.28-7.83 100.2 129.4 10.68 135.68-87.84 6.16-98.75-128.05-10.68-135.68"/></svg>