<?xml version="1.0" encoding="UTF-8"?>
<svg id="Layer_1" xmlns="http://www.w3.org/2000/svg" version="1.1" viewBox="0 0 512 512">
  <!-- Generator: Adobe Illustrator 29.8.1, SVG Export Plug-In . SVG Version: 2.1.1 Build 2)  -->
  <defs>
    <style>
      .st0 {
        fill: #070707;
        fill-rule: evenodd;
      }
    </style>
  </defs>
  <path class="st0" d="M340.21,276.96c0,55.69-45.15,100.84-100.84,100.84s-100.84-45.15-100.84-100.84,45.15-100.84,100.84-100.84,100.84,45.15,100.84,100.84ZM316.09,276.91c0-42.53-34.48-77-77-77s-77,34.48-77,77,34.48,77,77,77,77-34.48,77-77ZM391.51,162.91c0,20.85-16.88,37.73-37.73,37.73s-37.73-16.88-37.73-37.73,16.88-37.73,37.73-37.73,37.73,16.88,37.73,37.73ZM364.59,152.59c-5.7-9.91-31.26-1.4-26.42,14.92,3.93,13.3,41.31,11.03,26.42-14.92ZM295.37,3.12c96.68,10.82,198.29,110.56,211.41,206.75,40.49,296.5-342.61,413.09-475.52,167.79C-48.27,230.81,43.16,23.93,213.94,3.12c18.77-2.31,62.47-2.12,81.39,0h.04,0Z"/>
</svg>